Simulation
nRows=31
nColumns=15
endheader
time  TH_x TH_y TH_z SC_y  SC_z  SC_x  AC_y  AC_z  AC_x  GH_y  GH_z  GH_yy  EL_x  PS_y
5.362  0.000000  0.000000  0.000000  -33.90384381449707  10.254346757607026  32.476119790387884  53.63329783238592  10.838530234698542  8.33779460227149  0.05257163618368195  57.33977623913382  7.574363531810168  13.592907635226226  120.000000
5.397746666666667  0.000000  0.000000  0.000000  -34.020288756900804  10.265268458272836  33.03828969248586  53.72020764718044  10.538632373412481  8.317618306397096  -0.010093870807766138  57.36837982883897  7.640841677595556  13.654624083605185  120.000000
5.433493333333334  0.000000  0.000000  0.000000  -34.08035590165919  10.271453948486927  33.428433496080196  53.81294707422555  10.256336511237661  8.163415499612233  0.035803883184586056  57.25897451923044  7.689506905025412  13.622368641196509  120.000000
5.46924  0.000000  0.000000  0.000000  -34.07989142114429  10.269967134960401  33.63263751577657  53.90945567407935  10.000790627715771  7.874645449671519  0.18936402751935622  56.99206408268202  7.7034929550481674  13.507662096393238  120.000000
5.504986666666667  0.000000  0.000000  0.000000  -34.01690426114947  10.256080751373895  33.640804243710626  54.00673336337404  9.777911078740548  7.459065087711577  0.447232794556311  56.54808114466334  7.662529450022675  13.33213659485427  120.000000
5.540733333333334  0.000000  0.000000  0.000000  -33.89190013151944  10.224612715811888  33.446085465317125  54.1012070921271  9.589477335615225  6.930929152458341  0.8052718013393346  55.91058531856239  7.546696110688108  13.123002539662721  120.000000
5.57648  0.000000  0.000000  0.000000  -33.70786195951866  10.170773084275718  33.044432216673414  54.18867586123985  9.433043188884096  6.309430821515012  1.259807139790848  55.069382097351415  7.340474921958257  12.90823645631383  120.000000
5.612226666666667  0.000000  0.000000  0.000000  -33.469995132644506  10.090337124962371  32.43477726978389  54.26392776711704  9.30258454537584  5.617419152706735  1.808532082567592  54.02306612694795  7.036646410752376  12.71202372529776  120.000000
5.647973333333334  0.000000  0.000000  0.000000  -33.1851558120249  9.97942456680857  31.619741095262196  54.320519023428744  9.189495384123896  4.8804366904320915  2.4502880421969953  52.7805192340828  6.639420522759383  12.551041253060845  120.000000
5.68372  0.000000  0.000000  0.000000  -32.86105393002055  9.834243203420268  30.606505127800975  54.35091032964362  9.084083054654528  4.125493345284308  3.184060744294024  51.36029563454689  6.165627533954578  12.432619672897365  120.000000
5.719466666666667  0.000000  0.000000  0.000000  -32.505326132400484  9.651036217915237  29.40743260447032  54.347124710008856  8.976863346982029  3.37979682268726  4.0070997869885305  49.788197379887016  5.643923442482494  12.35568281909169  120.000000
5.755213333333334  0.000000  0.000000  0.000000  -32.12481283773744  9.426518146661728  28.040183633206503  54.30175344779938  8.859860172414377  2.669127266093077  4.913196866156301  48.093184362245566  5.1116206489338945  12.313402008858679  120.000000
5.79096  0.000000  0.000000  0.000000  -31.72523793520291  9.1586580177605  26.527300746789226  54.20908312753592  8.727164938586782  2.016241479792218  5.891280630245832  46.30317147386728  4.611025544800369  12.296041497185152  120.000000
5.826706666666667  0.000000  0.000000  0.000000  -31.311070094048958  8.847743405378496  24.895618270329866  54.06589210897027  8.57527169960003  1.439433846176476  6.925170427139259  44.44121662285602  4.1850817787531795  12.293191303786557  120.000000
5.862453333333334  0.000000  0.000000  0.000000  -30.885408727423854  8.497315587096448  23.17634966182032  53.871652578289414  8.403338562212024  0.9523049774266699  7.994642243119532  42.52369644086023  3.873267481080357  12.295473273885733  120.000000
5.8982  0.000000  0.000000  0.000000  -30.44990069535579  8.115185469700487  21.404578516639877  53.6284592626157  8.214025058421386  0.5639726718385198  9.077686642499014  40.56029697557944  3.7079069076137725  12.295574752851959  120.000000
5.933946666666667  0.000000  0.000000  0.000000  -30.00477824299823  7.713507466157907  19.617443807162896  53.341055531139794  8.013697575276668  0.27873636698685905  10.152502374316471  38.5550512050833  3.7121085703099754  12.288376069320817  120.000000
5.969693333333334  0.000000  0.000000  0.000000  -29.549357658388704  7.307774436007939  17.85190606381699  53.016948916987744  7.811402671281592  0.09554653374410675  11.19919511936797  36.508368918371026  3.8993217491630188  12.270507919123709  120.000000
6.00544  0.000000  0.000000  0.000000  -29.083084779260354  6.91473506879317  16.142587158859797  52.666183882012035  7.617332064359962  0.008160118778905164  12.20106902617561  34.419649914808886  4.273742737335064  12.23996783981452  120.000000
6.041186666666667  0.000000  0.000000  0.000000  -28.606608642946536  6.5499451069643655  14.519712227459221  52.30087751244027  7.441435002160779  0.006240413583040549  13.145731897128536  32.290289506913496  4.831396849637043  12.19624668663313  120.000000
6.076933333333334  0.000000  0.000000  0.000000  -28.122889004782998  6.225710049437257  13.007715349674971  51.934801829666945  7.292308256119877  0.0767870554424196  14.026758185613986  30.12640874831326  5.56037929842595  12.141091247021244  120.000000
6.11268  0.000000  0.000000  0.000000  -27.638014477857812  5.949273939572886  11.624260916510869  51.58237320802611  7.176261262939861  0.20539017824380296  14.844216301505307  27.94049055430961  6.441959487195576  12.079126807478325  120.000000
6.148426666666667  0.000000  0.000000  0.000000  -27.161681916055194  5.722052629452763  10.38002568097091  51.257387406298186  7.09698320670082  0.3773194318231963  15.603938422747346  25.751268403760495  7.452330971066095  12.017747488720339  120.000000
6.184173333333334  0.000000  0.000000  0.000000  -26.70651630290205  5.5403427461505235  9.27941694587252  50.971884452126154  7.055820994534912  0.5786429921046341  16.315480181806155  23.582149318634546  8.565592962025566  11.966272413932868  120.000000
6.21992  0.000000  0.000000  0.000000  -26.28640581479747  5.397144093147473  8.32162045121005  50.735703994383286  7.052311886884443  0.7969012889355409  16.98987416561265  21.45869462252262  9.756593871119957  11.934952212293494  120.000000
6.255666666666667  0.000000  0.000000  0.000000  -25.91412829135484  5.284099585144484  7.501939866409125  50.55608805624351  7.084502807358051  1.0220295627222973  17.63716442236839  19.405980818238188  11.003748136719663  11.934167337678092  120.000000
6.291413333333334  0.000000  0.000000  0.000000  -25.59874475945414  5.1932474535844895  6.812810726922915  50.43764263629956  7.148989506668653  1.2470071781736392  18.264124203298188  17.44618513914069  12.291304212848953  11.973867175199118  120.000000
6.32716  0.000000  0.000000  0.000000  -25.343378044339588  5.118412016609887  6.244383795271174  50.382596497971974  7.240750076578384  1.4680613953384622  18.87185045026894  15.596767312745229  13.611382375402378  12.063156094473449  120.000000
6.362906666666667  0.000000  0.000000  0.000000  -25.14422332730433  5.055850070140432  5.785043921963039  50.391061810553765  7.353268022432317  1.6845129289755496  19.453467385822425  13.869593742912473  14.965470886661999  12.210113190304337  120.000000
6.398653333333334  0.000000  0.000000  0.000000  -24.99116906594695  5.004123325118578  5.422033327938225  50.461255531168995  7.479019388563791  1.8982276624186682  19.993057303327003  12.271313050453228  16.364150606053514  12.421738967203318  120.000000
6.4344  0.000000  0.000000  0.000000  -24.869742707297988  4.9635061114290675  5.142196841554915  50.58950892843243  7.610410253323105  2.1127609733560218  20.465531848006083  10.804493873761276  17.825603573621418  12.70355696115072  120.000000
